<svg width="27" height="27" viewBox="0 0 27 27" fill="none" xmlns="http://www.w3.org/2000/svg">
<path d="M13.5 0C6.0525 0 0 6.0525 0 13.5C0 20.9475 6.0525 27 13.5 27C14.3438 27 15.165 26.9212 15.975 26.775L15.0525 24.0075C14.9175 24.1425 14.7712 24.255 14.625 24.3562V22.7138L12.5325 16.4475C12.42 16.1213 12.375 15.7837 12.375 15.4575V17.7413C11.3062 17.7863 10.26 17.8763 9.27 18.045C9.0675 16.9875 8.9325 15.84 8.87625 14.6025H12.375V15.4575C12.375 14.6587 12.69 13.8825 13.2863 13.2863C13.86 12.7013 14.6362 12.375 15.4688 12.375C15.8062 12.375 16.1325 12.4313 16.4587 12.5325L22.6575 14.6025H24.6938C24.6713 14.8275 24.6488 15.0413 24.6038 15.255L26.775 15.975C26.9212 15.165 27 14.3438 27 13.5C27 6.0525 20.9475 0 13.5 0ZM12.375 19.9913V24.3562C11.4075 23.7037 10.485 22.2638 9.8325 20.2275C10.6537 20.1038 11.4975 20.025 12.375 19.9913ZM4.05 7.41375C4.95 7.84125 5.9625 8.20125 7.065 8.49375C6.82875 9.6975 6.6825 10.9912 6.62625 12.3525H2.30625C2.48625 10.5525 3.11625 8.87625 4.05 7.41375ZM2.30625 14.6025H6.62625C6.6825 15.9862 6.82875 17.2913 7.065 18.5063C5.9625 18.7987 4.95 19.1588 4.05 19.5863C3.08009 18.0876 2.48225 16.3789 2.30625 14.6025ZM8.9325 23.7712C7.65044 23.2014 6.48659 22.3962 5.50125 21.3975C6.1425 21.1163 6.85125 20.88 7.605 20.6887C7.965 21.8475 8.415 22.8937 8.9325 23.7712ZM7.605 6.31125C6.85125 6.12 6.1425 5.88375 5.50125 5.6025C6.48 4.6125 7.63875 3.8025 8.9325 3.22875C8.415 4.10625 7.965 5.1525 7.605 6.31125ZM12.375 12.3525H8.87625C8.9325 11.1375 9.0675 10.0013 9.27 8.955C10.26 9.12375 11.3062 9.21375 12.375 9.25875V12.3525ZM12.375 7.00875C11.4975 6.975 10.6537 6.89625 9.8325 6.7725C10.485 4.73625 11.4075 3.29625 12.375 2.64375V7.00875ZM14.625 2.64375C15.5925 3.29625 16.515 4.73625 17.1675 6.7725C16.3463 6.89625 15.5025 6.975 14.625 7.00875V2.64375ZM14.625 12.3525V9.25875C15.6938 9.21375 16.74 9.12375 17.73 8.955C17.9325 10.0013 18.0675 11.1375 18.1238 12.3525H14.625ZM18.0675 3.22875C19.3612 3.8025 20.52 4.6125 21.4988 5.6025C20.8575 5.88375 20.1488 6.12 19.395 6.31125C19.035 5.1525 18.585 4.10625 18.0675 3.22875ZM20.3738 12.3525C20.3175 10.9912 20.1712 9.6975 19.935 8.49375C21.0375 8.20125 22.05 7.84125 22.95 7.41375C23.8837 8.87625 24.5138 10.5525 24.6938 12.3525H20.3738Z" fill="black"/>
<path d="M19.0317 26.9999H19.0126C18.8388 26.996 18.6705 26.9384 18.5307 26.8351C18.391 26.7318 18.2866 26.5878 18.2318 26.4228L14.669 15.7353C14.6193 15.5866 14.612 15.427 14.648 15.2744C14.684 15.1218 14.7617 14.9822 14.8726 14.8713C14.9835 14.7605 15.1231 14.6827 15.2757 14.6467C15.4283 14.6107 15.5879 14.618 15.7366 14.6677L26.4241 18.2306C26.5888 18.2857 26.7325 18.3902 26.8355 18.53C26.9386 18.6698 26.996 18.838 26.9999 19.0116C27.0039 19.1852 26.9541 19.3558 26.8575 19.5001C26.7609 19.6444 26.6221 19.7554 26.4601 19.8179L21.6642 21.6629L19.8192 26.4588C19.758 26.618 19.65 26.755 19.5094 26.8516C19.3689 26.9482 19.2023 26.9999 19.0317 26.9999Z" fill="black"/>
</svg>
