<svg width="34" height="24" viewBox="0 0 34 24" fill="none" xmlns="http://www.w3.org/2000/svg">
<path d="M33.2995 3.72497C32.9077 2.26839 31.7593 1.1202 30.3029 0.727973C27.6423 -5.0664e-08 16.9996 0 16.9996 0C16.9996 0 6.35738 0 3.69676 0.700401C2.26839 1.0922 1.09199 2.26865 0.700189 3.72497C0 6.38537 0 11.9028 0 11.9028C0 11.9028 0 17.4479 0.700189 20.0805C1.09236 21.5369 2.24039 22.6851 3.69698 23.0773C6.38537 23.8055 17 23.8055 17 23.8055C17 23.8055 27.6423 23.8055 30.3029 23.1051C31.7595 22.7131 32.9077 21.5649 33.2999 20.1085C33.9999 17.4479 33.9999 11.9307 33.9999 11.9307C33.9999 11.9307 34.0279 6.38532 33.2995 3.72497ZM13.6112 16.9999V6.80554L22.4611 11.9027L13.6112 16.9999Z" fill="black"/>
</svg>
